name ./resultDataOpenSim/trcMotMarkerGrf/sub06/grf-03-02.mot
datacolumns 19
datarows 27
range 0.50000000 0.60400000
endheader

                time	     ground_force_vx	     ground_force_vy	     ground_force_vz	     ground_force_px	     ground_force_py	     ground_force_pz	   l_ground_force_vx	   l_ground_force_vy	   l_ground_force_vz	   l_ground_force_px	   l_ground_force_py	   l_ground_force_pz	     ground_torque_x	     ground_torque_y	     ground_torque_z	   l_ground_torque_x	   l_ground_torque_y	   l_ground_torque_z	
          0.50000000	         90.31337317	        542.68243863	        -31.38598458	         -0.76685114	          0.00000000	          0.07798243	          0.00000000	          0.00000000	          0.00000000	          0.00000000	          0.00000000	          0.00000000	          0.00000000	          0.21861712	          0.00000000	          0.00000000	          0.00000000	          0.00000000	
          0.50400000	         94.31494079	        561.02644156	        -31.05882209	         -0.76510876	          0.00000000	          0.07792135	          0.00000000	          0.00000000	          0.00000000	          0.00000000	          0.00000000	          0.00000000	          0.00000000	          0.36633173	          0.00000000	          0.00000000	          0.00000000	          0.00000000	
          0.50800000	         99.01295659	        578.98466079	        -30.80221204	         -0.76358072	          0.00000000	          0.07781543	          0.00000000	          0.00000000	          0.00000000	          0.00000000	          0.00000000	          0.00000000	          0.00000000	          0.50592643	          0.00000000	          0.00000000	          0.00000000	          0.00000000	
          0.51200000	        104.46456903	        596.48359539	        -30.62657510	         -0.76227471	          0.00000000	          0.07767397	          0.00000000	          0.00000000	          0.00000000	          0.00000000	          0.00000000	          0.00000000	          0.00000000	          0.63246354	          0.00000000	          0.00000000	          0.00000000	          0.00000000	
          0.51600000	        110.61971663	        613.43193649	        -30.47869518	         -0.76117032	          0.00000000	          0.07750521	          0.00000000	          0.00000000	          0.00000000	          0.00000000	          0.00000000	          0.00000000	          0.00000000	          0.74848906	          0.00000000	          0.00000000	          0.00000000	          0.00000000	
          0.52000000	        117.34472874	        629.71220911	        -30.26245293	         -0.76024123	          0.00000000	          0.07731394	          0.00000000	          0.00000000	          0.00000000	          0.00000000	          0.00000000	          0.00000000	          0.00000000	          0.86227780	          0.00000000	          0.00000000	          0.00000000	          0.00000000	
          0.52400000	        124.46863250	        645.17132819	        -29.86652393	         -0.75946154	          0.00000000	          0.07710216	          0.00000000	          0.00000000	          0.00000000	          0.00000000	          0.00000000	          0.00000000	          0.00000000	          0.98457799	          0.00000000	          0.00000000	          0.00000000	          0.00000000	
          0.52800000	        131.83010028	        659.61697948	        -29.19449252	         -0.75879980	          0.00000000	          0.07687288	          0.00000000	          0.00000000	          0.00000000	          0.00000000	          0.00000000	          0.00000000	          0.00000000	          1.12475197	          0.00000000	          0.00000000	          0.00000000	          0.00000000	
          0.53200000	        139.30654006	        672.83115654	        -28.19194383	         -0.75822353	          0.00000000	          0.07663265	          0.00000000	          0.00000000	          0.00000000	          0.00000000	          0.00000000	          0.00000000	          0.00000000	          1.28739835	          0.00000000	          0.00000000	          0.00000000	          0.00000000	
          0.53600000	        146.82167867	        684.59747405	        -26.86333737	         -0.75770589	          0.00000000	          0.07639352	          0.00000000	          0.00000000	          0.00000000	          0.00000000	          0.00000000	          0.00000000	          0.00000000	          1.47038363	          0.00000000	          0.00000000	          0.00000000	          0.00000000	
          0.54000000	        154.33917401	        694.72376928	        -25.27540231	         -0.75722658	          0.00000000	          0.07617100	          0.00000000	          0.00000000	          0.00000000	          0.00000000	          0.00000000	          0.00000000	          0.00000000	          1.66472983	          0.00000000	          0.00000000	          0.00000000	          0.00000000	
          0.54400000	        161.84960002	        703.04890058	        -23.54792574	         -0.75677146	          0.00000000	          0.07597917	          0.00000000	          0.00000000	          0.00000000	          0.00000000	          0.00000000	          0.00000000	          0.00000000	          1.85619517	          0.00000000	          0.00000000	          0.00000000	          0.00000000	
          0.54800000	        169.35341967	        709.44660770	        -21.83422609	         -0.75633085	          0.00000000	          0.07582842	          0.00000000	          0.00000000	          0.00000000	          0.00000000	          0.00000000	          0.00000000	          0.00000000	          2.02792744	          0.00000000	          0.00000000	          0.00000000	          0.00000000	
          0.55200000	        176.84528140	        713.84077164	        -20.29373675	         -0.75589752	          0.00000000	          0.07572629	          0.00000000	          0.00000000	          0.00000000	          0.00000000	          0.00000000	          0.00000000	          0.00000000	          2.16343167	          0.00000000	          0.00000000	          0.00000000	          0.00000000	
          0.55600000	        184.30869480	        716.21744732	        -19.06014254	         -0.75546624	          0.00000000	          0.07567708	          0.00000000	          0.00000000	          0.00000000	          0.00000000	          0.00000000	          0.00000000	          0.00000000	          2.24923296	          0.00000000	          0.00000000	          0.00000000	          0.00000000	
          0.56000000	        191.71940625	        716.61803675	        -18.21466731	         -0.75502990	          0.00000000	          0.07568104	          0.00000000	          0.00000000	          0.00000000	          0.00000000	          0.00000000	          0.00000000	          0.00000000	          2.27686369	          0.00000000	          0.00000000	          0.00000000	          0.00000000	
          0.56400000	        199.04593595	        715.12464024	        -17.77518761	         -0.75457766	          0.00000000	          0.07573501	          0.00000000	          0.00000000	          0.00000000	          0.00000000	          0.00000000	          0.00000000	          0.00000000	          2.24400275	          0.00000000	          0.00000000	          0.00000000	          0.00000000	
          0.56800000	        206.24425538	        711.84538790	        -17.70035631	         -0.75410374	          0.00000000	          0.07583307	          0.00000000	          0.00000000	          0.00000000	          0.00000000	          0.00000000	          0.00000000	          0.00000000	          2.15469031	          0.00000000	          0.00000000	          0.00000000	          0.00000000	
          0.57200000	        213.25375923	        706.88992254	        -17.90054214	         -0.75361611	          0.00000000	          0.07596686	          0.00000000	          0.00000000	          0.00000000	          0.00000000	          0.00000000	          0.00000000	          0.00000000	          2.01858890	          0.00000000	          0.00000000	          0.00000000	          0.00000000	
          0.57600000	        219.99784275	        700.33683723	        -18.25253177	         -0.75313025	          0.00000000	          0.07612483	          0.00000000	          0.00000000	          0.00000000	          0.00000000	          0.00000000	          0.00000000	          0.00000000	          1.84935317	          0.00000000	          0.00000000	          0.00000000	          0.00000000	
          0.58000000	        226.38488961	        692.21327394	        -18.61884984	         -0.75265294	          0.00000000	          0.07629349	          0.00000000	          0.00000000	          0.00000000	          0.00000000	          0.00000000	          0.00000000	          0.00000000	          1.66233018	          0.00000000	          0.00000000	          0.00000000	          0.00000000	
          0.58400000	        232.30689449	        682.49504803	        -18.86909459	         -0.75217394	          0.00000000	          0.07646018	          0.00000000	          0.00000000	          0.00000000	          0.00000000	          0.00000000	          0.00000000	          0.00000000	          1.47198157	          0.00000000	          0.00000000	          0.00000000	          0.00000000	
          0.58800000	        237.63909337	        671.11760967	        -18.89734281	         -0.75167244	          0.00000000	          0.07661247	          0.00000000	          0.00000000	          0.00000000	          0.00000000	          0.00000000	          0.00000000	          0.00000000	          1.28951923	          0.00000000	          0.00000000	          0.00000000	          0.00000000	
          0.59200000	        242.24208595	        657.99314807	        -18.63060528	         -0.75113809	          0.00000000	          0.07673640	          0.00000000	          0.00000000	          0.00000000	          0.00000000	          0.00000000	          0.00000000	          0.00000000	          1.12122247	          0.00000000	          0.00000000	          0.00000000	          0.00000000	
          0.59600000	        245.96081027	        643.02549243	        -18.02819737	         -0.75058329	          0.00000000	          0.07681286	        -12.25181938	         40.61035740	          0.12427495	         -0.08508443	         -0.05000000	         -0.03117148	          0.00000000	          0.96775669	          0.00000000	          0.00000000	         -0.25243607	          0.00000000	
          0.60000000	        248.62101059	        626.10152302	        -17.07551631	         -0.75003531	          0.00000000	          0.07682285	        -29.96768563	        223.65788963	         -0.39778168	         -0.07981709	         -0.05000000	         -0.03180149	          0.00000000	          0.82462977	          0.00000000	          0.00000000	         -0.75240161	          0.00000000	
          0.60400000	        250.03201802	        607.05253644	        -15.77250126	         -0.74953319	          0.00000000	          0.07674482	        -49.30872239	        392.18269726	         -0.79501963	         -0.07547882	         -0.05000000	         -0.03228916	          0.00000000	          0.68376953	          0.00000000	          0.00000000	         -1.21680911	          0.00000000	
